<svg width="75" height="75" viewBox="0 0 75 75" fill="none" xmlns="http://www.w3.org/2000/svg">
<path d="M16.2494 66.6253C11.9123 64.8288 9.85277 59.8566 11.6492 55.5195L30.4007 10.2494C32.1972 5.91234 37.1694 3.85277 41.5065 5.64925C45.8436 7.44573 47.9032 12.418 46.1067 16.755L27.3552 62.0251C25.5587 66.3622 20.5865 68.4218 16.2494 66.6253Z" fill="#7DD3FC"/>
<path d="M35.386 6.04515C39.7231 4.24867 44.6953 6.30824 46.4918 10.6453L65.2433 55.9154C67.0398 60.2525 64.9802 65.2247 60.6431 67.0212C56.306 68.8177 51.3338 66.7581 49.5373 62.421L30.7858 17.1509C28.9894 12.8139 31.0489 7.84163 35.386 6.04515Z" fill="#7DD3FC"/>
<path d="M5 13.5C5 8.80558 8.80558 5 13.5 5H62.5C67.1944 5 71 8.80558 71 13.5C71 18.1944 67.1944 22 62.5 22H13.5C8.80558 22 5 18.1944 5 13.5Z" fill="#2563EB"/>
<path d="M38.5 71C33.8056 71 30 67.1944 30 62.5V13.5C30 8.80558 33.8056 5 38.5 5C43.1944 5 47 8.80558 47 13.5V62.5C47 67.1944 43.1944 71 38.5 71Z" fill="#2563EB"/>
</svg>
